<?xml version="1.0" standalone="no"?><!DOCTYPE svg PUBLIC "-//W3C//DTD SVG 1.1//EN" "http://www.w3.org/Graphics/SVG/1.1/DTD/svg11.dtd"><svg t="1655791753253" class="icon" viewBox="0 0 1024 1024" version="1.1" xmlns="http://www.w3.org/2000/svg" p-id="7194" xmlns:xlink="http://www.w3.org/1999/xlink" width="200" height="200"><defs><style type="text/css">@font-face { font-family: feedback-iconfont; src: url("//at.alicdn.com/t/font_1031158_u69w8yhxdu.woff2?t=1630033759944") format("woff2"), url("//at.alicdn.com/t/font_1031158_u69w8yhxdu.woff?t=1630033759944") format("woff"), url("//at.alicdn.com/t/font_1031158_u69w8yhxdu.ttf?t=1630033759944") format("truetype"); }
</style></defs><path d="M128 384V160c0-17.6 14.4-32 32-32h224v64H192v192h-64z m512-192h192v192h64V160c0-17.6-14.4-32-32-32H640v64z m192 448v192H640v64h224c17.6 0 32-14.4 32-32V640h-64z m-448 192H192V640h-64v224c0 17.6 14.4 32 32 32h224v-64z m512-352H128v64h768v-64z" p-id="7195" fill="#ff4400"></path></svg>