<?xml version="1.0" standalone="no"?><!DOCTYPE svg PUBLIC "-//W3C//DTD SVG 1.1//EN" "http://www.w3.org/Graphics/SVG/1.1/DTD/svg11.dtd"><svg t="1655384844409" class="icon" viewBox="0 0 1024 1024" version="1.1" xmlns="http://www.w3.org/2000/svg" p-id="5151" xmlns:xlink="http://www.w3.org/1999/xlink" width="200" height="200"><defs><style type="text/css">@font-face { font-family: feedback-iconfont; src: url("//at.alicdn.com/t/font_1031158_u69w8yhxdu.woff2?t=1630033759944") format("woff2"), url("//at.alicdn.com/t/font_1031158_u69w8yhxdu.woff?t=1630033759944") format("woff"), url("//at.alicdn.com/t/font_1031158_u69w8yhxdu.ttf?t=1630033759944") format("truetype"); }
</style></defs><path d="M803.489282 224.331231C725.819319 146.630568 622.353852 103.849206 512.215406 103.849206c-110.168122 0-213.57526 42.781362-291.246247 120.482025-77.700663 77.686337-120.482025 181.107801-120.482025 291.246247 0 110.181425 42.782386 213.589586 120.482025 291.290249 77.670987 77.670987 181.078125 120.437 291.246247 120.437 110.138446 0 213.603913-42.766013 291.2749-120.437C964.056258 646.274146 964.056258 384.940163 803.489282 224.331231M765.62593 769.003352c-67.574025 67.603701-157.547199 104.801904-253.411547 104.801904-95.834672 0-185.837522-37.198204-253.441223-104.801904-139.718135-139.704832-139.718135-367.119285 0-506.823094 67.603701-67.560722 157.606551-104.815207 253.441223-104.815207 95.864348 0 185.836499 37.254485 253.411547 104.815207C833.200978 329.74098 870.427834 419.742806 870.427834 515.577478 870.427834 611.457176 833.200978 701.459003 765.62593 769.003352" p-id="5152"></path><path d="M750.308059 449.483154c-0.349971-1.566682-0.754177-2.87242-1.192152-3.829212l-39.284725-97.807606c-7.485485-22.370497-29.073152-36.849256-54.923914-36.878932L378.255415 310.967404c-25.532513 0-46.017056 13.768585-53.270251 35.484166l-42.533722 100.507088c-0.233314 0.768503-0.522909 1.841951-0.639566 2.436492-3.25002 10.038634-4.874007 20.410865-4.874007 30.726815 0 26.025747 10.531867 51.254338 28.898167 69.590961l0.115634 144.549164c0 26.982538 21.992897 48.946782 48.975435 48.946782l316.373531-0.202615c27.01119-0.056282 48.946782-22.079878 48.946782-49.033763l-0.059352-139.036613c22.166859-18.7132 34.846646-46.00273 34.846646-75.176167C755.093039 469.662753 753.440399 459.202517 750.308059 449.483154M671.242306 697.541787l-316.314179 0.204661c-1.972934 0-3.538593-1.567705-3.538593-3.483334l-0.116657-119.190613c7.602142 1.683339 15.667841 2.552126 24.13877 2.552126 26.752294-0.086981 52.139497-10.966773 70.505797-30.029944 18.336624 18.889209 43.550888 29.68202 70.301136 29.857005 26.521027-0.232291 51.560306-11.0558 69.808926-29.943986 18.396999 19.063171 43.811832 29.886681 70.767763 29.886681 6.207375-0.060375 12.242835-0.553609 17.986653-1.452071l0.029676 118.059859C674.811598 695.974082 673.186587 697.541787 671.242306 697.541787M682.064792 526.328333c-6.730285 3.684926-15.289218 5.541203-25.329898 5.628184-18.454304 0-35.250852-9.401114-44.680619-24.589025-0.871857-1.842974-2.467191-5.237281-5.454222-8.53028-3.570315-4.018523-10.013051-8.791224-20.543895-8.791224-8.268314 0-16.013719 3.409656-20.62883 8.965186-2.698458 3.060709-4.235464 6.063089-4.960988 7.760754-9.691733 15.667841-26.28669 25.097608-44.276413 25.242917-18.280342-0.11461-34.991955-9.575076-44.450375-24.806989-0.7552-1.566682-2.321882-4.830005-4.758374-7.544837-4.845355-5.78782-12.592806-9.109472-21.297049-9.109472-8.269337 0-15.841803 3.119037-20.077268 8.167007-2.989077 3.322675-4.643764 6.587022-5.368264 8.341992-9.777691 15.696494-26.605961 25.067932-44.88528 25.12626-9.865695 0-18.249643-1.769296-24.951275-5.338588-17.292851-9.197476-28.057009-27.099195-28.057009-46.698578 0-5.889127 0.986467-11.707646 2.929726-17.510816 0.173962-0.462534 0.347924-1.029446 0.290619-1.029446 0 0 0 0.028653-0.058328 0.085958l41.896202-99.055017c0.725524-2.175549 2.089591-6.180769 10.822486-6.180769l276.362258-0.027629c6.440689 0.376577 10.793834 1.666966 12.67774 7.122211l38.764885 96.357582 0.639566 2.64013c1.971911 5.613858 2.960425 11.44568 2.960425 17.2335C709.65722 499.155461 699.067025 516.984524 682.064792 526.328333" p-id="5153"></path></svg>