<?xml version="1.0" standalone="no"?><!DOCTYPE svg PUBLIC "-//W3C//DTD SVG 1.1//EN" "http://www.w3.org/Graphics/SVG/1.1/DTD/svg11.dtd"><svg t="1655466260542" class="icon" viewBox="0 0 1024 1024" version="1.1" xmlns="http://www.w3.org/2000/svg" p-id="4107" xmlns:xlink="http://www.w3.org/1999/xlink" width="200" height="200"><defs><style type="text/css">@font-face { font-family: feedback-iconfont; src: url("//at.alicdn.com/t/font_1031158_u69w8yhxdu.woff2?t=1630033759944") format("woff2"), url("//at.alicdn.com/t/font_1031158_u69w8yhxdu.woff?t=1630033759944") format("woff"), url("//at.alicdn.com/t/font_1031158_u69w8yhxdu.ttf?t=1630033759944") format("truetype"); }
</style></defs><path d="M438.855 731.458h146.274v146.274H438.855zM438.869 438.869V292.595H292.582v146.274H146.28V292.595h146.302V0.006H0.006v438.863h143.59v146.274h148.986v146.273h146.287V585.144H585.13V438.869H438.869zM75.862 75.862h140.863v140.877H75.862V75.862zM438.855 0.006h146.274V146.28H438.855zM731.404 438.869h292.589v146.274H731.404zM585.13 585.144h146.274v146.273H585.13zM585.13 292.595h146.274v146.274H585.13zM1023.993 0.006H731.404v292.589h292.589V0.006z m-75.855 216.733H807.26V75.862h140.878v140.877zM0.006 1023.993H438.855V877.732H292.582V731.417H0.006v292.576z m75.856-216.72h140.863v140.863H75.862V807.273zM1023.993 1023.993V731.417H731.404v292.576h292.589zM807.26 807.273h140.878v140.863H807.26V807.273z" fill="#ff4400" p-id="4108"></path></svg>