<?xml version="1.0" standalone="no"?><!DOCTYPE svg PUBLIC "-//W3C//DTD SVG 1.1//EN" "http://www.w3.org/Graphics/SVG/1.1/DTD/svg11.dtd"><svg t="1655370798012" class="icon" viewBox="0 0 1024 1024" version="1.1" xmlns="http://www.w3.org/2000/svg" p-id="16844" xmlns:xlink="http://www.w3.org/1999/xlink" width="200" height="200"><defs><style type="text/css">@font-face { font-family: feedback-iconfont; src: url("//at.alicdn.com/t/font_1031158_u69w8yhxdu.woff2?t=1630033759944") format("woff2"), url("//at.alicdn.com/t/font_1031158_u69w8yhxdu.woff?t=1630033759944") format("woff"), url("//at.alicdn.com/t/font_1031158_u69w8yhxdu.ttf?t=1630033759944") format("truetype"); }
</style></defs><path d="M254.2 633c4.3 65.3 33.2 126 81.5 170.7 48.3 44.8 111.3 69.4 177.4 69.4 66.1 0 129.2-24.6 177.4-69.4 46.7-43.3 75.2-101.3 81-164.1h4.1c58.3 0 105.7-47.4 105.7-105.7 0-12-9.7-21.7-21.7-21.7H782l7.6-92.1c0.5-5.6-1.5-11.2-5.3-15.3-3.8-4.1-9.2-6.5-14.8-6.5H256.8c-5.6 0-11 2.4-14.8 6.5-3.8 4.1-5.7 9.7-5.3 15.3L254.2 633z m601.1-94.8c-2.2 42-37.1 75.4-79.6 75.4h-2l6.2-75.4h75.4z m-92.2-114l-17 206.8v0.2c-7.9 121.1-110.3 215.9-233 215.9s-225.1-94.8-233-215.9l-17-207h500zM915 899.5H109c-7.2 0-13 5.8-13 13s5.8 13 13 13h806c7.2 0 13-5.8 13-13s-5.8-13-13-13zM468.4 366.2c0.8 0.4 15.3 8.2 33.8 8.2 6.4 0 13.3-0.9 20.3-3.4 18.1-6.4 32.1-21.2 41.4-44l0.2-0.6c12.5-35.3 5.3-59.5-3-73.7-9.4-16-22.8-24.3-29.2-26.8-0.3-0.1-0.7-0.3-1.4-0.5-16-5.1-41.8-19.5-36.4-58.7 5.9-20.2 16.3-33.3 30.7-39.2 11.1-4.5 21-3 21.1-3h-0.1l4.6-25.6c-1.6-0.3-16.3-2.6-33.7 3.8-16 6-37.4 20.9-47.9 57.6l-0.2 0.8-0.1 0.8c-5.2 35.1 8.3 56.7 20.6 68.5 9.1 8.8 20.3 15.3 33.4 19.5l0.2 0.1c2.2 0.9 10.4 6 16.1 16 7.7 13.5 8 30.7 0.8 51.1-6.4 15.4-15 25.1-25.7 29-16.1 5.8-33-3-33.1-3-6.3-3.4-14.2-1.1-17.6 5.2-3.4 6.6-1.1 14.5 5.2 17.9zM611.4 366.2c0.8 0.4 15.3 8.2 33.8 8.2 6.4 0 13.3-0.9 20.3-3.4 18.1-6.4 32.1-21.2 41.4-44l0.2-0.6c12.5-35.3 5.3-59.5-3-73.7-9.4-16-22.8-24.3-29.2-26.8-0.3-0.1-0.7-0.3-1.4-0.5-16-5.1-41.8-19.5-36.4-58.7 5.9-20.2 16.3-33.3 30.7-39.2 11.1-4.5 21-3 21.1-3h-0.1l4.6-25.6c-1.6-0.3-16.3-2.6-33.7 3.8-16 6-37.4 20.9-47.9 57.6l-0.2 0.8-0.1 0.8c-5.2 35.1 8.3 56.7 20.6 68.5 9.1 8.8 20.3 15.3 33.4 19.5l0.2 0.1c2.2 0.9 10.4 6 16.1 16 7.7 13.5 8 30.7 0.8 51.1-6.4 15.4-15 25.2-25.7 29-16.1 5.8-33-3-33.1-3-6.3-3.4-14.2-1.1-17.6 5.2-3.5 6.6-1.1 14.5 5.2 17.9zM325.4 366.2c0.8 0.4 15.3 8.2 33.8 8.2 6.4 0 13.3-0.9 20.3-3.4 18.1-6.4 32.1-21.2 41.4-44l0.2-0.6c12.5-35.3 5.3-59.5-3-73.7-9.4-16-22.8-24.3-29.2-26.8-0.3-0.1-0.7-0.3-1.4-0.5-16-5.1-41.8-19.5-36.4-58.7 5.9-20.2 16.3-33.3 30.7-39.2 11.1-4.5 21-3 21.1-3h-0.1l4.6-25.6c-1.6-0.3-16.3-2.6-33.7 3.8-16 6-37.4 20.9-47.9 57.6l-0.2 0.8-0.1 0.8c-5.2 35.1 8.3 56.7 20.6 68.5 9.1 8.8 20.3 15.3 33.4 19.5l0.2 0.1c2.2 0.9 10.4 6 16.1 16 7.7 13.5 8 30.7 0.8 51.1-6.4 15.4-15 25.2-25.7 29-16.1 5.8-33-3-33.1-3-6.3-3.4-14.2-1.1-17.6 5.2-3.4 6.6-1.1 14.5 5.2 17.9z" fill="" p-id="16845"></path><path d="M513.1 829c81.7 0 153.1-45.8 188.6-113.4H324.6C360 783.2 431.5 829 513.1 829z" fill="" p-id="16846"></path></svg>