<?xml version="1.0" standalone="no"?><!DOCTYPE svg PUBLIC "-//W3C//DTD SVG 1.1//EN" "http://www.w3.org/Graphics/SVG/1.1/DTD/svg11.dtd"><svg t="1655370894373" class="icon" viewBox="0 0 1024 1024" version="1.1" xmlns="http://www.w3.org/2000/svg" p-id="16984" xmlns:xlink="http://www.w3.org/1999/xlink" width="200" height="200"><defs><style type="text/css">@font-face { font-family: feedback-iconfont; src: url("//at.alicdn.com/t/font_1031158_u69w8yhxdu.woff2?t=1630033759944") format("woff2"), url("//at.alicdn.com/t/font_1031158_u69w8yhxdu.woff?t=1630033759944") format("woff"), url("//at.alicdn.com/t/font_1031158_u69w8yhxdu.ttf?t=1630033759944") format("truetype"); }
</style></defs><path d="M541.416695 426.919511c55.522875 0 100.690285-45.165591 100.690285-100.675127 0-55.520551-45.16842-100.695236-100.690285-100.695236-55.53197 0-100.708474 45.174686-100.708474 100.695236C440.708119 381.75392 485.883715 426.919511 541.416695 426.919511zM541.416695 283.747921c23.427452 0 42.488177 19.059916 42.488177 42.496564 0 23.416437-19.060725 42.476353-42.488177 42.476353-23.435536 0-42.506366-19.059916-42.506366-42.476353C498.910329 302.806827 517.981058 283.747921 541.416695 283.747921zM852.705858 360.648073c0.777607-8.933136 1.486599-17.818776 1.486599-26.409644 0-184.301808-144.749945-334.238429-322.664663-334.238429-177.907745 0-322.637378 149.936621-322.637378 334.238429 0 8.591777 0.710002 17.477518 1.486599 26.409644l-81.279172 0L129.097844 1000.866332l795.442776 0L924.540619 360.648036 852.705891 360.648036zM531.527794 58.201704c145.820406 0 264.462555 123.828925 264.462555 276.036725 0 12.731234-1.478515 26.315664-3.666931 40.467711l-1.685473 5.191627-1.109871-0.228179c-1.042165 5.078548-2.197511 9.908707-3.381151 14.654991-3.87399 12.617044-9.453562 30.615696-15.632078 43.924451L292.546842 438.249031c-6.431959-13.878394-12.267196-32.9565-16.141085-45.648324-1.345225-4.385826-2.567165-8.393914-3.676026-11.813264l-1.978427-6.109598c-2.179321-14.152048-3.657836-27.717378-3.657836-40.439518C267.093535 182.030629 385.716483 58.201704 531.527794 58.201704zM866.336368 942.664607 187.300903 942.664607 187.300903 574.050769l679.026417 0 0-58.201755L187.300903 515.849014 187.300903 418.848782l35.003881 0c7.456036 26.428844 17.401425 48.434472 29.840311 65.409047 0.084784 0.1151 0.151479 0.266579 0.237375 0.379658l8.72446 11.812253 540.852936 0 0.018178 0 8.714355-11.812253c13.414356-18.16923 22.744835-42.874201 29.167699-65.788806l26.478369 0L866.338468 942.664577z" p-id="16985"></path></svg>