<?xml version="1.0" standalone="no"?><!DOCTYPE svg PUBLIC "-//W3C//DTD SVG 1.1//EN" "http://www.w3.org/Graphics/SVG/1.1/DTD/svg11.dtd"><svg t="1655370594487" class="icon" viewBox="0 0 1070 1024" version="1.1" xmlns="http://www.w3.org/2000/svg" p-id="13831" xmlns:xlink="http://www.w3.org/1999/xlink" width="208.984375" height="200"><defs><style type="text/css">@font-face { font-family: feedback-iconfont; src: url("//at.alicdn.com/t/font_1031158_u69w8yhxdu.woff2?t=1630033759944") format("woff2"), url("//at.alicdn.com/t/font_1031158_u69w8yhxdu.woff?t=1630033759944") format("woff"), url("//at.alicdn.com/t/font_1031158_u69w8yhxdu.ttf?t=1630033759944") format("truetype"); }
</style></defs><path d="M325.189818 934.120727H1.210182V0h524.171636v190.068364a23.412364 23.412364 0 0 1-46.824727 0V46.545455H48.034909v841.029818h277.154909a23.272727 23.272727 0 1 1 0 46.545454z m166.539637-536.017454H23.528727a23.272727 23.272727 0 1 1 0-46.545455h468.200728a23.272727 23.272727 0 1 1 0 46.545455z m-351.13891-69.818182H93.765818v-116.363636H140.567273v116.363636z m0 325.818182H93.765818v-186.181818H140.567273v186.181818zM1070.382545 1024H313.181091V172.218182h757.201454V1024z m-710.376727-46.545455h663.575273V218.763636H360.005818V977.454545z m693.527273-579.351272H327.842909v-46.545455H1053.556364v46.545455zM676.328727 919.272727a228.840727 228.840727 0 1 1 230.190546-228.840727 229.771636 229.771636 0 0 1-230.190546 228.840727z m0-411.136a182.295273 182.295273 0 1 0 183.365818 182.295273 183.04 183.04 0 0 0-183.365818-182.295273z m283.578182-203.124363h-93.626182v-46.545455h93.626182v46.545455z m-117.038545 0h-46.824728v-46.545455h46.824728v46.545455z m-70.237091 0h-46.801455v-46.545455H772.654545v46.545455z m-96.302546 517.306181a131.886545 131.886545 0 1 1 132.654546-131.886545 132.421818 132.421818 0 0 1-132.654546 131.886545z m0-217.227636a85.341091 85.341091 0 1 0 85.829818 85.341091A85.690182 85.690182 0 0 0 676.328727 605.090909z" p-id="13832"></path></svg>