<?xml version="1.0" standalone="no"?><!DOCTYPE svg PUBLIC "-//W3C//DTD SVG 1.1//EN" "http://www.w3.org/Graphics/SVG/1.1/DTD/svg11.dtd"><svg t="1655641180642" class="icon" viewBox="0 0 1024 1024" version="1.1" xmlns="http://www.w3.org/2000/svg" p-id="2767" xmlns:xlink="http://www.w3.org/1999/xlink" width="200" height="200"><defs><style type="text/css">@font-face { font-family: feedback-iconfont; src: url("//at.alicdn.com/t/font_1031158_u69w8yhxdu.woff2?t=1630033759944") format("woff2"), url("//at.alicdn.com/t/font_1031158_u69w8yhxdu.woff?t=1630033759944") format("woff"), url("//at.alicdn.com/t/font_1031158_u69w8yhxdu.ttf?t=1630033759944") format("truetype"); }
</style></defs><path d="M293.60128 750.42816c-30.312448 0-54.889472 24.568832-54.889472 54.889472 0 30.32064 24.577024 54.889472 54.889472 54.889472 30.319616 0 54.897664-24.567808 54.889472-54.889472C348.489728 774.996992 323.920896 750.42816 293.60128 750.42816z" p-id="2768" fill="#ffffff"></path><path d="M629.054464 724.698112c-41.684992 0-75.474944 33.782784-75.474944 75.467776 0 41.689088 33.789952 75.474944 75.474944 75.474944s75.476992-33.785856 75.476992-75.474944C704.531456 758.480896 670.739456 724.698112 629.054464 724.698112z" p-id="2769" fill="#ffffff"></path><path d="M964.237312 207.852544 964.237312 194.184192c0-21.330944-18.482176-38.621184-41.284608-38.621184L761.675776 155.563008c-2.086912 0-4.117504 0.191488-6.125568 0.473088-15.404032 0.864256-29.400064 10.917888-34.438144 26.399744l-46.355456 131.43552L98.932736 313.87136c-21.330944 0-38.6304 17.293312-38.6304 38.623232l0 11.948032c0 21.338112 17.299456 38.6304 38.6304 38.6304L643.290112 403.073024l-19.065856 54.055936c-0.176128 0-0.345088-0.031744-0.520192-0.031744L140.105728 457.097216c-21.338112 0-38.629376 17.301504-38.629376 38.631424l0 11.948032c0 21.330944 17.291264 38.621184 38.629376 38.621184l452.671488 0-19.539968 55.386112L206.848 601.683968c-22.194176 0-40.188928 17.298432-40.188928 38.629376l0 11.95008c0 21.328896 17.994752 38.629376 40.188928 38.629376l395.982848 0c1.103872 0 2.190336-0.080896 3.269632-0.160768 17.354752 1.337344 33.983488-9.156608 39.574528-26.345472l147.39968-417.910784 129.886208 0c22.801408 0 41.284608-17.292288 41.284608-38.623232L964.237312 207.852544z" p-id="2770" fill="#ffffff"></path></svg>