<?xml version="1.0" standalone="no"?><!DOCTYPE svg PUBLIC "-//W3C//DTD SVG 1.1//EN" "http://www.w3.org/Graphics/SVG/1.1/DTD/svg11.dtd"><svg t="1655368442888" class="icon" viewBox="0 0 1024 1024" version="1.1" xmlns="http://www.w3.org/2000/svg" p-id="2994" xmlns:xlink="http://www.w3.org/1999/xlink" width="200" height="200"><defs><style type="text/css">@font-face { font-family: feedback-iconfont; src: url("//at.alicdn.com/t/font_1031158_u69w8yhxdu.woff2?t=1630033759944") format("woff2"), url("//at.alicdn.com/t/font_1031158_u69w8yhxdu.woff?t=1630033759944") format("woff"), url("//at.alicdn.com/t/font_1031158_u69w8yhxdu.ttf?t=1630033759944") format("truetype"); }
</style></defs><path d="M905.999492 707.72266 747.776911 463.934285c30.479175-40.222073 49.963948-87.178525 56.862056-137.466861 2.434445-9.94756 3.666506-20.170388 3.666506-30.416753l0-78.700433c0-84.153632-83.443457-152.618956-186.011484-152.618956l-47.149856 0c-5.602601 0-11.903098 1.593288-16.97665 3.965312-11.342326 5.303796-19.373233 15.830547-21.48943 28.175713-13.670348 79.621409-114.178459 125.794008-283.019889 130.002866-20.748556 0.51677-37.295418 17.480116-37.295418 38.235836l0 30.939663c0 5.721305 0.460488 11.653411 1.400906 18.10331 5.123694 54.098105 25.573445 106.246813 58.337663 149.730163L117.827569 707.72266c-5.933129 9.145287-7.413853 20.24509-4.637624 30.522154 17.473977 126.417201 187.069583 221.022882 398.36901 221.022882 208.342072 0 376.119263-91.966575 397.533992-215.711923C914.061099 731.914642 912.971277 718.467375 905.999492 707.72266zM511.558955 882.771465c-180.296319 0-302.710346-74.081229-320.950779-146.667407l165.020404-254.234285c9.543354-14.703887 7.869225-34.020838-4.065596-46.864354-33.374108-35.907815-53.331649-80.480986-57.720609-128.913045-0.074701-0.791016-0.167822-1.581008-0.292666-2.372024-0.11154-0.728594-0.211824-1.431605-0.292666-2.103918 113.020076-7.613398 267.992637-40.59558 310.641993-160.387897l18.395976 0c59.364039 0 109.515253 34.861996 109.515253 76.122725l0 78.700433c0 4.482081-0.585331 8.945743-1.74269 13.278421-0.435928 1.63115-0.765433 3.299139-0.983397 4.980431-5.832845 45.276183-25.474185 87.010703-56.787354 120.689756-11.946077 12.842493-13.621229 32.159444-4.077875 46.870494l164.484192 253.438153C815.171857 808.142767 692.521446 882.771465 511.558955 882.771465z" p-id="2995"></path><path d="M565.79316 458.618209c-13.477966 7.090489-33.124422 11.156084-53.91084 11.156084-20.748556 0-40.364313-4.065596-53.823859-11.149944-18.688641-9.82374-41.821501-2.65855-51.66366 16.030092-9.836019 18.694781-2.65855 41.821501 16.030092 51.66366 24.446785 12.868075 56.214303 19.952424 89.457428 19.952424 33.273824 0 65.066925-7.084349 89.51985-19.946284 18.694781-9.836019 25.87839-32.962739 16.048511-51.65752C607.608521 455.965799 584.481801 448.76991 565.79316 458.618209z" p-id="2996"></path></svg>