<?xml version="1.0" standalone="no"?><!DOCTYPE svg PUBLIC "-//W3C//DTD SVG 1.1//EN" "http://www.w3.org/Graphics/SVG/1.1/DTD/svg11.dtd"><svg t="1655370692412" class="icon" viewBox="0 0 1024 1024" version="1.1" xmlns="http://www.w3.org/2000/svg" p-id="16566" xmlns:xlink="http://www.w3.org/1999/xlink" width="200" height="200"><defs><style type="text/css">@font-face { font-family: feedback-iconfont; src: url("//at.alicdn.com/t/font_1031158_u69w8yhxdu.woff2?t=1630033759944") format("woff2"), url("//at.alicdn.com/t/font_1031158_u69w8yhxdu.woff?t=1630033759944") format("woff"), url("//at.alicdn.com/t/font_1031158_u69w8yhxdu.ttf?t=1630033759944") format("truetype"); }
</style></defs><path d="M174.908621 333.131162c-91.582464 0-166.084301-74.483405-166.084301-166.05399C8.82432 75.506688 83.325133 1.023283 174.908621 1.023283c91.56096 0 166.060749 74.483405 166.060749 166.052966C340.970394 258.647757 266.469581 333.131162 174.908621 333.131162zM174.908621 68.56151c-54.339789 0-98.542285 44.191437-98.542285 98.516787 0 54.326272 44.202496 98.515763 98.542285 98.515763 54.328525 0 98.518733-44.189389 98.518733-98.515763C273.428378 112.752947 229.237146 68.56151 174.908621 68.56151zM509.459558 333.131162c-91.583488 0-166.082253-74.483405-166.082253-166.05399C343.377306 75.506688 417.87607 1.023283 509.459558 1.023283 601.022566 1.023283 675.522355 75.506688 675.522355 167.077274 675.522355 258.647757 601.022566 333.131162 509.459558 333.131162zM509.459558 68.56151c-54.338765 0-98.542285 44.191437-98.542285 98.516787 0 54.326272 44.20352 98.515763 98.542285 98.515763 54.327501 0 98.518733-44.189389 98.518733-98.515763C607.979315 112.752947 563.789107 68.56151 509.459558 68.56151zM844.01152 333.131162c-91.582464 0-166.081229-74.483405-166.081229-166.05399C677.930291 75.506688 752.428954 1.023283 844.01152 1.023283 935.574528 1.023283 1010.075341 75.506688 1010.075341 167.077274 1010.074317 258.647757 935.574528 333.131162 844.01152 333.131162zM844.01152 68.56151c-54.337741 0-98.542285 44.191437-98.542285 98.516787 0 54.326272 44.204544 98.515763 98.542285 98.515763 54.328525 0 98.519757-44.189389 98.519757-98.515763C942.532301 112.752947 898.340045 68.56151 844.01152 68.56151zM174.908621 673.626112c-91.582464 0-166.084301-74.473165-166.084301-166.040678 0-91.570586 74.500813-166.055014 166.084301-166.055014 91.56096 0 166.060749 74.484429 166.060749 166.055014C340.970394 599.152947 266.469581 673.626112 174.908621 673.626112zM174.908621 409.067725c-54.339789 0-98.542285 44.192461-98.542285 98.517811 0 54.324224 44.202496 98.514739 98.542285 98.514739 54.328525 0 98.518733-44.190413 98.518733-98.514739C273.428378 453.259162 229.237146 409.067725 174.908621 409.067725zM509.459558 673.626112c-91.583488 0-166.082253-74.473165-166.082253-166.040678 0-91.570586 74.498765-166.055014 166.082253-166.055014 91.563008 0 166.061773 74.484429 166.061773 166.055014C675.522355 599.152947 601.022566 673.626112 509.459558 673.626112zM509.459558 409.067725c-54.338765 0-98.542285 44.192461-98.542285 98.517811 0 54.324224 44.20352 98.514739 98.542285 98.514739 54.327501 0 98.518733-44.190413 98.518733-98.514739C607.978291 453.259162 563.789107 409.067725 509.459558 409.067725zM844.01152 673.626112c-91.582464 0-166.081229-74.473165-166.081229-166.040678 0-91.570586 74.498765-166.055014 166.081229-166.055014 91.563008 0 166.062797 74.484429 166.062797 166.055014C1010.074317 599.152947 935.574528 673.626112 844.01152 673.626112zM844.01152 409.067725c-54.337741 0-98.542285 44.192461-98.542285 98.517811 0 54.324224 44.204544 98.514739 98.542285 98.514739 54.328525 0 98.519757-44.190413 98.519757-98.514739C942.532301 453.259162 898.340045 409.067725 844.01152 409.067725zM174.908621 1014.179328c-91.582464 0-166.084301-74.485453-166.084301-166.079488 0-91.54601 74.500813-166.029414 166.084301-166.029414 91.56096 0 166.060749 74.483405 166.060749 166.029414C340.970394 939.693875 266.469581 1014.179328 174.908621 1014.179328zM174.908621 749.608653c-54.339789 0-98.542285 44.190413-98.542285 98.493235 0 54.3488 44.202496 98.541363 98.542285 98.541363 54.328525 0 98.518733-44.192461 98.518733-98.541363C273.428378 793.799066 229.237146 749.608653 174.908621 749.608653zM509.459558 1014.179328c-91.583488 0-166.082253-74.485453-166.082253-166.079488 0-91.54601 74.498765-166.029414 166.082253-166.029414 91.563008 0 166.061773 74.483405 166.061773 166.029414C675.522355 939.693875 601.022566 1014.179328 509.459558 1014.179328zM509.459558 749.608653c-54.338765 0-98.542285 44.190413-98.542285 98.493235 0 54.3488 44.20352 98.541363 98.542285 98.541363 54.327501 0 98.518733-44.192461 98.518733-98.541363C607.979315 793.799066 563.789107 749.608653 509.459558 749.608653zM844.01152 1014.179328c-91.582464 0-166.081229-74.485453-166.081229-166.079488 0-91.54601 74.498765-166.029414 166.081229-166.029414 91.563008 0 166.062797 74.483405 166.062797 166.029414C1010.074317 939.693875 935.574528 1014.179328 844.01152 1014.179328zM844.01152 749.608653c-54.337741 0-98.542285 44.190413-98.542285 98.493235 0 54.3488 44.204544 98.541363 98.542285 98.541363 54.328525 0 98.519757-44.192461 98.519757-98.541363C942.532301 793.799066 898.340045 749.608653 844.01152 749.608653z" p-id="16567"></path></svg>