<?xml version="1.0" standalone="no"?><!DOCTYPE svg PUBLIC "-//W3C//DTD SVG 1.1//EN" "http://www.w3.org/Graphics/SVG/1.1/DTD/svg11.dtd"><svg t="1655370232868" class="icon" viewBox="0 0 1024 1024" version="1.1" xmlns="http://www.w3.org/2000/svg" p-id="11977" xmlns:xlink="http://www.w3.org/1999/xlink" width="200" height="200"><defs><style type="text/css">@font-face { font-family: feedback-iconfont; src: url("//at.alicdn.com/t/font_1031158_u69w8yhxdu.woff2?t=1630033759944") format("woff2"), url("//at.alicdn.com/t/font_1031158_u69w8yhxdu.woff?t=1630033759944") format("woff"), url("//at.alicdn.com/t/font_1031158_u69w8yhxdu.ttf?t=1630033759944") format("truetype"); }
</style></defs><path d="M431.3 642.7h28.9v28.9h-28.9v-28.9z m-57.8 0h28.9v28.9h-28.9v-28.9z m-188 0h159.1v28.9H185.5v-28.9z m260.3-130.1c23.9 0 43.4-19.5 43.4-43.4 0-8 6.5-14.5 14.5-14.5s14.5 6.5 14.5 14.5v3.7c-0.1 9 0 18.1 4 25.8-17.3 19.5-28.9 44.2-32 71.5-0.3 0-0.6 0.2-0.9 0.2-8 0-14.5-6.5-14.5-14.5 0-23.9-19.5-43.4-43.4-43.4S388 532 388 555.9c0 8-6.5 14.5-14.5 14.5s-14.5-6.5-14.5-14.5c0-23.9-19.5-43.4-43.4-43.4s-43.4 19.5-43.4 43.4c0 8-6.5 14.5-14.5 14.5-5.3 0-9.8-3.1-12.3-7.4 10.3-53.4 57.2-93.9 113.6-93.9h14.5c0-8 6.5-14.5 14.5-14.5s14.5 6.5 14.5 14.5c-0.1 24 19.4 43.5 43.3 43.5z m86.8 43.3c0-8 6.5-14.5 14.5-14.5s14.5 6.5 14.5 14.5c0 5.1 1 9.9 2.7 14.5H530c1.5-4.5 2.6-9.4 2.6-14.5z m86.8-72.3c50.9 0 93 37.8 100.1 86.8H604.9c-8 0-14.5-6.5-14.5-14.5 0-23.4-18.7-42.5-42-43.2 18.4-17.9 43.4-29.1 71-29.1z m-205.2 86.8c1.6-4.5 2.7-9.4 2.7-14.5 0-8 6.5-14.5 14.5-14.5s14.5 6.5 14.5 14.5c0 5.1 1 9.9 2.7 14.5h-34.4z m-115.7 0c1.6-4.5 2.7-9.4 2.7-14.5 0-8 6.5-14.5 14.5-14.5s14.5 6.5 14.5 14.5c0 5.1 1 9.9 2.7 14.5h-34.4z m523 28.9c-5.7 140.7-94.5 275.6-220 332.6H347.9c-125.5-57.1-214.3-192-220-332.6h693.6z m-636-43.4c0-8 6.5-14.5 14.5-14.5s14.5 6.5 14.5 14.5c0 3.5 0.5 6.9 1.3 10.2-0.2 1.4-0.5 2.8-0.6 4.2h-32.3c1.5-4.4 2.6-9.3 2.6-14.4zM927 92.6l-7.7-27.9-415.6 115.5v-43.6h-28.9v51.7l-14.5 4v-26.8h-28.9v34.8l-14.5 4v-9.9H388v231.4c-12.9 0-24.3 5.7-32.2 14.6-56.3 1.3-104.7 34.9-127.4 83-7.6-6.7-17.5-10.8-28.4-10.8-23.9 0-43.4 19.5-43.4 43.4 0 8-6.5 14.5-14.5 14.5H98.7V585c0 143.4 81.6 283.5 202.5 355.1V961h347.1v-21c120.9-71.5 202.5-211.6 202.5-355.1v-14.5h-72.3V454.7h-28.9v115.7h-0.9c-1.8-16-6.5-31.2-13.6-44.9v-85.3h-28.9v47.9c-23.1-20.7-53.4-33.4-86.8-33.4-26.8 0-57.9 8.1-72.3 22v-7.5c0-23.9-19.5-43.4-43.4-43.4s-43.4 19.5-43.4 43.4c0 8-6.5 14.5-14.5 14.5s-14.5-6.5-14.5-14.5c0-12.8-5.7-24.2-14.5-32.1V237.8h14.5v188h28.9v-188h14.5v28.9h28.9v-28.9H923v-28.9H508.5L927 92.6z" fill="#070102" p-id="11978"></path></svg>