<?xml version="1.0" standalone="no"?><!DOCTYPE svg PUBLIC "-//W3C//DTD SVG 1.1//EN" "http://www.w3.org/Graphics/SVG/1.1/DTD/svg11.dtd"><svg t="1655370339342" class="icon" viewBox="0 0 1024 1024" version="1.1" xmlns="http://www.w3.org/2000/svg" p-id="12116" xmlns:xlink="http://www.w3.org/1999/xlink" width="200" height="200"><defs><style type="text/css">@font-face { font-family: feedback-iconfont; src: url("//at.alicdn.com/t/font_1031158_u69w8yhxdu.woff2?t=1630033759944") format("woff2"), url("//at.alicdn.com/t/font_1031158_u69w8yhxdu.woff?t=1630033759944") format("woff"), url("//at.alicdn.com/t/font_1031158_u69w8yhxdu.ttf?t=1630033759944") format("truetype"); }
</style></defs><path d="M360.22 363.62c-49.11 52.79-81.9 114.78-97.61 184.44-84.43 12-149.56 84.77-149.56 172.47 0 96.07 78.16 174.22 174.23 174.22s174.23-78.15 174.23-174.22c0-90.44-69.27-165-157.53-173.42 14.88-58.53 43.43-110.85 85.1-155.79 38-41 87.1-76.19 145.81-104.51 62.35-30.06 122.64-46 160-53.83a401.26 401.26 0 0 0-28.38 97c-6.26 38.41-7.59 79.06-4 120.82a544.48 544.48 0 0 0 18.93 102.6c-72.16 21.29-125 88.15-125 167.13 0 96.07 78.16 174.22 174.23 174.22S904.9 816.6 904.9 720.53 826.75 546.3 730.68 546.3c-3.2 0-6.38 0.1-9.53 0.27a501.29 501.29 0 0 1-18.74-99.28c-3.36-38.46-2.15-75.77 3.58-110.91 7.1-43.58 21.24-83.93 42-119.94l19.84-34.39-39.44 4.53c-3 0.34-54.91 6.53-123.8 29.21l-11.67-10.86C589 201.3 496 116 373.67 116c-109.84 0-196.85 85.74-200.5 89.39L159.66 219l12.89 14.11c1 1.09 24.83 27 64.47 51.73 47.71 29.78 98.32 45.28 147.4 45.28q5.47 0 10.92-0.27a449 449 0 0 0-35.12 33.77z m61.29 356.91c0 74-60.22 134.22-134.23 134.22s-134.23-60.21-134.23-134.22S213.27 586.3 287.28 586.3s134.23 60.22 134.23 134.23z m443.39 0c0 74-60.21 134.22-134.22 134.22s-134.23-60.21-134.23-134.22S656.67 586.3 730.68 586.3 864.9 646.52 864.9 720.53zM259.18 251.46a321 321 0 0 1-42.29-31.31C244.21 197.89 304.73 156 373.67 156c55.09 0 104.08 21 135.48 38.65a362.51 362.51 0 0 1 38.76 25.16c-29.3 23.15-90.4 65.49-150 69.74-45.91 3.32-92.57-9.55-138.73-38.09z" p-id="12117"></path></svg>