<?xml version="1.0" standalone="no"?><!DOCTYPE svg PUBLIC "-//W3C//DTD SVG 1.1//EN" "http://www.w3.org/Graphics/SVG/1.1/DTD/svg11.dtd"><svg t="1655370185896" class="icon" viewBox="0 0 1024 1024" version="1.1" xmlns="http://www.w3.org/2000/svg" p-id="11838" xmlns:xlink="http://www.w3.org/1999/xlink" width="200" height="200"><defs><style type="text/css">@font-face { font-family: feedback-iconfont; src: url("//at.alicdn.com/t/font_1031158_u69w8yhxdu.woff2?t=1630033759944") format("woff2"), url("//at.alicdn.com/t/font_1031158_u69w8yhxdu.woff?t=1630033759944") format("woff"), url("//at.alicdn.com/t/font_1031158_u69w8yhxdu.ttf?t=1630033759944") format("truetype"); }
</style></defs><path d="M50.372301 427.846349l6.285414 3.78624 468.314803 0L414.971802 70.319514l-0.771584-2.173542c-4.061696-10.095923-26.420838-60.427264-67.221709-60.427264-5.196595 0-10.373632 0.858522-15.388058 2.523443-30.558208 10.166579-33.462477 39.796429-35.024077 55.714918-0.352051 3.606118-0.876032 8.973414-1.570816 12.337971-2.274918-2.138726-4.921242-4.953805-6.794035-6.952346-9.803674-10.46743-23.241216-24.804966-43.771699-24.804966-7.582003 0-14.991053 2.04247-22.023475 6.061056-30.085427 17.180262-24.049664 49.205658-21.139251 64.593101 0.584294 3.134362 1.441894 7.66761 1.768346 11.067085-1.656832-0.601702-3.442586-1.29751-4.878336-1.863475-7.993344-3.133338-17.944371-7.031091-29.718016-7.031091-10.911949 0-26.926285 3.562086-41.255219 20.545946-26.522112 31.431885-5.993779 60.504986 2.781491 72.919757 1.47671 2.095718 3.461939 4.910797 4.75648 7.067955-0.008192 0.008192-0.016384 0.016384-0.024576 0.023552-1.313997-0.342835-3.02295-0.892314-4.302131-1.296486-5.461606-1.73353-12.25257-3.890586-20.393267-3.890586-10.724659 0-26.075955 3.880346-38.312141 22.402253-21.809562 32.985293 3.631821 59.67104 15.85879 72.489984 2.307686 2.421146 5.383885 5.650739 7.522611 8.269312-2.540954 0.08489-6.595482-0.291635-9.943859-0.64471-4.685926-0.479949-9.316557-0.908698-13.754778-0.908698-26.787123 0-39.915725 15.454003-46.210355 28.410061C6.445056 383.267021 29.979034 415.543194 50.372301 427.846349zM72.155238 369.10039c2.445824 0.052224 4.988826 0.352051 7.556403 0.61911 4.75648 0.496333 9.590784 0.943514 14.339174 0.943514 21.088154 0 37.308211-8.783053 48.211968-26.101453 20.487475-32.513536-4.516045-58.735718-16.526029-71.340851-0.472781-0.489165-0.980378-1.020211-1.504358-1.570816 3.614515 0.79104 7.634227 1.36407 11.977216 1.36407 16.273306 0 30.413926-7.743386 42.040115-23.026483 22.049075-29.012787 2.961613-56.04137-5.194547-67.587277-1.79497-2.542899-4.309299-6.104064-5.563904-8.45865 0 0 0.008192-0.007168 0.01536-0.016384 0.800256-0.954778 1.400934-1.511424 1.538048-1.761075 2.179686 0.334643 6.739763 2.11927 9.855898 3.340083 7.710925 3.022848 17.319117 6.792704 28.472627 6.792704 11.549491 0 22.383718-4.147507 31.340032-11.987046 20.580557-18.00407 18.116301-42.104934 15.216128-58.453299 9.898803 10.224845 23.09591 21.652173 42.251981 21.652173 6.636442 0 13.239091-1.467392 19.654451-4.360294 28.824678-13.02569 31.588659-41.211597 33.237299-58.05015 0.224154-2.293248 0.507597-5.168742 0.859648-7.71881 4.85888 4.902707 11.119718 14.569882 14.958285 23.559578l88.884941 291.939021L73.323917 378.878054C71.623066 376.553165 70.670336 373.360435 72.155238 369.10039zM290.993152 840.453632c-48.107622 0-87.253709 39.13431-87.253709 87.230669 0 48.101581 39.145062 87.232717 87.253709 87.232717 48.100454 0 87.236301-39.131238 87.236301-87.232717C378.230477 879.587942 339.095654 840.453632 290.993152 840.453632zM290.993152 962.165658c-19.026125 0-34.497024-15.469363-34.497024-34.480333 0-19.006874 15.471002-34.479309 34.497024-34.479309 19.010765 0 34.482688 15.472435 34.482688 34.479309C325.477888 946.694349 310.003917 962.165658 290.993152 962.165658zM581.142016 840.453632c-48.110694 0-87.254733 39.13431-87.254733 87.230669 0 48.101581 39.144038 87.232717 87.254733 87.232717 48.100454 0 87.238349-39.131238 87.238349-87.232717C668.381389 879.587942 629.24247 840.453632 581.142016 840.453632zM581.142016 962.165658c-19.027149 0-34.499072-15.469363-34.499072-34.480333 0-19.006874 15.472026-34.479309 34.499072-34.479309 19.008717 0 34.480742 15.472435 34.480742 34.479309C615.62368 946.694349 600.151757 962.165658 581.142016 962.165658zM987.765248 121.826611c-38.827827-38.827315-80.482202-56.951091-132.675072-29.880525-32.250778 16.725914-50.118451 62.161715-67.72009 91.311616-53.258138 88.220262-105.474458 177.060659-157.587456 265.957274L32.151551 449.214976l3.134566 29.190861c0.376627 3.582566 42.63168 358.386381 404.164198 358.386381 290.448691 0 378.301133-235.453542 384.186368-359.959245l1.293517-27.620045L690.999449 449.212928c30.138675-51.289088 60.363162-102.520934 90.727014-153.662771 22.986445-38.713754 46.076211-77.385523 69.482291-115.842355 25.002394-41.074483 53.929472-65.922458 99.254579-20.58793C974.539571 183.189197 1011.841638 145.891738 987.765248 121.826611zM439.451238 784.041882c-259.40951 0-329.353318-204.266291-346.576282-282.073293l674.915487 0C755.762074 578.323558 699.237376 784.041882 439.451238 784.041882z" p-id="11839"></path></svg>