<?xml version="1.0" standalone="no"?><!DOCTYPE svg PUBLIC "-//W3C//DTD SVG 1.1//EN" "http://www.w3.org/Graphics/SVG/1.1/DTD/svg11.dtd"><svg t="1655469836173" class="icon" viewBox="0 0 1024 1024" version="1.1" xmlns="http://www.w3.org/2000/svg" p-id="6237" xmlns:xlink="http://www.w3.org/1999/xlink" width="200" height="200"><defs><style type="text/css">@font-face { font-family: feedback-iconfont; src: url("//at.alicdn.com/t/font_1031158_u69w8yhxdu.woff2?t=1630033759944") format("woff2"), url("//at.alicdn.com/t/font_1031158_u69w8yhxdu.woff?t=1630033759944") format("woff"), url("//at.alicdn.com/t/font_1031158_u69w8yhxdu.ttf?t=1630033759944") format("truetype"); }
</style></defs><path d="M511.700176 572.264689c52.369315 0 103.139567 10.293968 150.911575 30.482139 46.172946 19.488581 87.648643 47.472184 123.227796 83.151279 35.679094 35.679094 63.562756 77.154792 83.151279 123.227796 12.392739 29.282842 20.987703 59.764981 25.884833 90.946711H128.524693c4.797189-31.281671 13.492094-61.663869 25.884833-90.946711 19.488581-46.172946 47.472184-87.648643 83.151278-123.227796 35.679094-35.679094 77.154792-63.562756 123.227796-83.151279 47.772009-20.188171 98.54226-30.482139 150.911576-30.482139m0-59.964865c-247.255124 0-447.737654 200.48253-447.737654 447.737654h895.475307c0-247.255124-200.48253-447.737654-447.737653-447.737654z" p-id="6238"></path><path d="M511.700176 124.527035c50.770252 0 98.442319 19.788405 134.321296 55.567441 35.878977 35.878977 55.567441 83.551044 55.567441 134.321296s-19.788405 98.442319-55.567441 134.321296c-35.878977 35.878977-83.551044 55.567441-134.321296 55.567441s-98.442319-19.788405-134.321296-55.567441c-35.878977-35.878977-55.567441-83.551044-55.567441-134.321296s19.788405-98.442319 55.567441-134.321296c35.878977-35.779036 83.551044-55.567441 134.321296-55.567441m0-59.964864c-138.019129 0-249.853601 111.834472-249.853602 249.853601s111.834472 249.853601 249.853602 249.853601 249.853601-111.834472 249.853601-249.853601-111.834472-249.853601-249.853601-249.853601z" p-id="6239"></path></svg>