<?xml version="1.0" standalone="no"?><!DOCTYPE svg PUBLIC "-//W3C//DTD SVG 1.1//EN" "http://www.w3.org/Graphics/SVG/1.1/DTD/svg11.dtd"><svg t="1655783530851" class="icon" viewBox="0 0 1024 1024" version="1.1" xmlns="http://www.w3.org/2000/svg" p-id="4255" xmlns:xlink="http://www.w3.org/1999/xlink" width="200" height="200"><defs><style type="text/css">@font-face { font-family: feedback-iconfont; src: url("//at.alicdn.com/t/font_1031158_u69w8yhxdu.woff2?t=1630033759944") format("woff2"), url("//at.alicdn.com/t/font_1031158_u69w8yhxdu.woff?t=1630033759944") format("woff"), url("//at.alicdn.com/t/font_1031158_u69w8yhxdu.ttf?t=1630033759944") format("truetype"); }
</style></defs><path d="M739.14 960H284.86c-16.84 0-31.42-10.23-37.16-26.06-5.74-15.83-1.09-33.03 11.84-43.83L307 850.57a39.578 39.578 0 0 1 25.3-9.16h359.4c9.22 0 18.19 3.24 25.28 9.14l47.46 39.56c12.94 10.81 17.59 28.01 11.85 43.84-5.73 15.82-20.32 26.05-37.15 26.05z m-417.89-52.71h381.49l-15.81-13.18H337.07l-15.82 13.18z m370.45-13.17h0.13-0.13z" fill="#ff4400" p-id="4256"></path><path d="M551.53 894.12h-79.06c-14.55 0-26.35-11.8-26.35-26.35V722.82c0-14.55 11.8-26.35 26.35-26.35h79.06c14.55 0 26.35 11.8 26.35 26.35v144.94c0.01 14.56-11.79 26.36-26.35 26.36z m-52.7-52.71h26.35v-92.24h-26.35v92.24z" fill="#ff4400" p-id="4257"></path><path d="M880.94 749.18H143.06c-43.6 0-79.06-35.46-79.06-79.06V143.06C64 99.46 99.47 64 143.06 64h737.88c43.6 0 79.06 35.46 79.06 79.06v527.06c0 43.59-35.47 79.06-79.06 79.06zM143.06 116.71c-14.53 0-26.35 11.82-26.35 26.35v527.06c0 14.53 11.82 26.35 26.35 26.35h737.88c14.53 0 26.35-11.82 26.35-26.35V143.06c0-14.53-11.83-26.35-26.35-26.35H143.06z" fill="#ff4400" p-id="4258"></path><path d="M439.92 542.61c-9.05 0-18.1-2.38-26.35-7.14-16.5-9.53-26.35-26.59-26.35-45.65V323.35c0-19.06 9.85-36.12 26.35-45.65 16.5-9.52 36.21-9.53 52.71 0.01l144.16 83.23c16.5 9.52 26.35 26.58 26.35 45.64 0 19.06-9.85 36.12-26.36 45.65l-144.16 83.23c-8.25 4.77-17.3 7.15-26.35 7.15z m0-219.26v166.47l144.16-83.23s0-0.01 0.01-0.01l0.12-0.07-144.29-83.16z" fill="#ff4400" p-id="4259"></path></svg>