<?xml version="1.0" standalone="no"?><!DOCTYPE svg PUBLIC "-//W3C//DTD SVG 1.1//EN" "http://www.w3.org/Graphics/SVG/1.1/DTD/svg11.dtd"><svg t="1655369990162" class="icon" viewBox="0 0 1024 1024" version="1.1" xmlns="http://www.w3.org/2000/svg" p-id="9958" xmlns:xlink="http://www.w3.org/1999/xlink" width="200" height="200"><defs><style type="text/css">@font-face { font-family: feedback-iconfont; src: url("//at.alicdn.com/t/font_1031158_u69w8yhxdu.woff2?t=1630033759944") format("woff2"), url("//at.alicdn.com/t/font_1031158_u69w8yhxdu.woff?t=1630033759944") format("woff"), url("//at.alicdn.com/t/font_1031158_u69w8yhxdu.ttf?t=1630033759944") format("truetype"); }
</style></defs><path d="M971.527 392.078L839.149 169.594c-5.729-11.652-17.836-20.114-32.248-20.114H217.227v0.442c-12.134 0-24.007 5.962-30.647 17.394L54.201 389.097c-10.077 14.177-8.931 33.836 3.645 46.178l428.043 428.499 1.133 0.456c13.943 13.722 36.362 13.722 50.306 0l428.707-428.955h-0.222c11.43-11.431 14.412-29.267 5.714-43.197zM760.032 221.032l-85.743 140.632a47.989 47.989 0 0 0-3.789-0.164c-2.771 0-5.48 0.25-8.12 0.706l-98.988-141.174h196.64z m-132.05 166.793c-0.136 0.271-0.273 0.541-0.404 0.815H401.421a47.213 47.213 0 0 0-2.563-4.683l113.537-161.311 115.587 165.179zM460.736 221.032l-98.403 140.636a48.105 48.105 0 0 0-3.833-0.167c-2.775 0-5.49 0.251-8.135 0.708l-86.504-141.176h196.875z m-234.605 19.45l89.842 147.361c-0.132 0.265-0.267 0.528-0.394 0.796h-178.16l88.712-148.157zM154.799 431.63h161.928c6.511 11.994 18.04 20.861 31.767 23.805l98.051 267.719L154.799 431.63z m357.597 345.475L390.021 444.522a47.675 47.675 0 0 0 10.252-12.892h228.454a47.625 47.625 0 0 0 6.843 9.55L512.396 777.105z m64.939-53.951l97.977-266.896c15.992-1.609 29.644-11.149 36.962-24.628h156.364L577.335 723.154zM713.422 388.64a47.323 47.323 0 0 0-2.727-4.938l87.756-143.22 88.022 148.158H713.422z" fill="" p-id="9959"></path></svg>